<svg xmlns="http://www.w3.org/2000/svg" viewBox="0 0 500 500"><path fill="#E1E9F4" d="M52.7 249v-1.3c0-125.4 93.9-228.1 227.5-228.1 68.1 0 112.8 20.2 151.2 49.8 8.2 6.3 15.1 17 15.1 30.9 0 21.4-17 37.8-38.4 37.8-10.7 0-18.3-3.8-23.3-7.6-30.2-24.6-63-39.7-105.2-39.7-83.8 0-145.6 69.3-145.6 155.6v1.3C134 334 195.1 404 279.6 404c46.6 0 78.1-15.1 110.3-42.2 5.7-5 13.9-8.8 23.3-8.8 19.5 0 36.5 16.4 36.5 35.9 0 12-5.7 21.4-12.6 27.7-41.6 36.5-88.8 59.2-160.1 59.2-128.5 0-224.3-100.2-224.3-226.8z"/><path fill="#4072AF" d="M134.2 239.7c3.1-83.1 63.8-148.9 145.4-148.9 42.2 0 75 15.1 105.2 39.7 5 3.8 12.6 7.6 23.3 7.6 21.4 0 38.4-16.4 38.4-37.8 0-13.9-6.9-24.6-15.1-30.9-38.4-29.6-83.2-49.8-151.2-49.8-130.7 0-223.4 98.4-227.3 220.1 0 0-.2 43.4 41.5 42.2 36.4-1.1 39.8-42.2 39.8-42.2z"/><circle fill="#E1E9F4" cx="91.7" cy="247.7" r="10.4"/></svg>
