<?xml version="1.0" encoding="iso-8859-1"?>
<!-- Generator: Adobe Illustrator 18.0.0, SVG Export Plug-In . SVG Version: 6.00 Build 0)  -->
<!DOCTYPE svg PUBLIC "-//W3C//DTD SVG 1.1//EN" "http://www.w3.org/Graphics/SVG/1.1/DTD/svg11.dtd">
<svg version="1.1" id="Calque_1" xmlns="http://www.w3.org/2000/svg" xmlns:xlink="http://www.w3.org/1999/xlink" x="0px" y="0px"
	 viewBox="0 0 500 500" enable-background="new 0 0 500 500" xml:space="preserve">
<g>
	<g>
		<path fill="#E1E9F4" d="M433.4,389.8c0,11-4.4,17.9-11.1,24.6c-30,30.8-76,53.2-137.5,53.2c-103.5,0-171.3-55.5-201.8-130.1
			c-10.9-26.7-16.4-56.1-16.4-88c0-104.5,56.7-171.4,132.8-201.2c26.9-10.5,56.2-15.8,87.7-15.8c51.6,0,98.8,17.9,126.3,43.3
			c7.4,6.9,11.7,12.7,11.7,23.4c0,15.8-11.5,27.5-27.5,27.5c-11,0-16.5-4.8-24.6-11.7c-18.5-16.9-50.4-31.6-86-31.6
			c-77.2,0-125.2,45-146.2,102.1c-7.4,20.1-11.1,41.4-11.1,64c0,76.8,37,129.8,91,153.8c19.3,8.6,40.8,12.9,64.6,12.9
			c43.8,0,75.3-16.1,98.9-40.4c7-7,12.7-11.7,23.4-11.7C422.2,364.1,433.4,374.9,433.4,389.8z"/>
	</g>
	<path fill="#4072AF" d="M413.5,75.7c-27.6-25.4-74.7-43.3-126.3-43.3c-31.6,0-60.8,5.3-87.7,15.8C126.4,76.8,71.2,139.7,67,237.1
		c0,0-0.3,37.7,32.6,37c31.5-0.6,30.7-37,30.7-37c1.1-18.1,4.6-35.4,10.7-51.8c21-57.1,69-102.1,146.2-102.1
		c35.6,0,67.5,14.7,86,31.6c8,6.9,13.6,11.7,24.6,11.7c16,0,27.5-11.7,27.5-27.5C425.2,88.4,420.9,82.6,413.5,75.7z"/>
	<circle fill="#E1E9F4" cx="99" cy="247.8" r="8"/>
</g>
</svg>
